<svg width="46" height="46" viewBox="0 0 46 46" fill="none" xmlns="http://www.w3.org/2000/svg">
<circle cx="23" cy="23" r="23" fill="#CC4900"/>
<path d="M27.3551 28.0895H21.0218C18.5122 28.0895 16.4697 26.047 16.4697 23.5374C16.4697 21.0279 18.5122 18.9854 21.0218 18.9854H29.7301C30.0547 18.9854 30.3239 19.2545 30.3239 19.5791C30.3239 19.9037 30.0547 20.1729 29.7301 20.1729H21.0218C19.1693 20.1729 17.6572 21.6849 17.6572 23.5374C17.6572 25.3899 19.1693 26.902 21.0218 26.902H27.3551C27.6797 26.902 27.9489 27.1712 27.9489 27.4958C27.9489 27.8204 27.6876 28.0895 27.3551 28.0895Z" fill="white"/>
<path d="M27.9092 22.1519C27.7587 22.1519 27.6083 22.0965 27.4896 21.9778C27.26 21.7482 27.26 21.3682 27.4896 21.1386L29.0967 19.5315L27.4896 17.9244C27.26 17.6949 27.26 17.3149 27.4896 17.0853C27.7192 16.8557 28.0992 16.8557 28.3287 17.0853L30.3554 19.1119C30.585 19.3415 30.585 19.7215 30.3554 19.9511L28.3287 21.9778C28.21 22.0965 28.0596 22.1519 27.9092 22.1519Z" fill="white"/>
</svg>
