<svg width="46" height="46" viewBox="0 0 46 46" fill="none" xmlns="http://www.w3.org/2000/svg">
<circle cx="23" cy="23" r="23" fill="#1E2024"/>
<path d="M17.2733 24.2521C17.2733 23.7254 17.46 23.1454 17.8266 22.5654L19.0466 20.6188C19.1266 20.4854 19.1733 20.3321 19.1733 20.1788V19.2188C19.1733 17.6054 20.06 16.7188 21.6733 16.7188H24.34C25.9533 16.7188 26.84 17.6054 26.84 19.2188V20.1721C26.84 20.3254 26.8866 20.4788 26.9666 20.6121L28.1866 22.5588C28.7933 23.5321 28.9066 24.4788 28.4933 25.2254C28.08 25.9721 27.22 26.3788 26.0666 26.3788H19.9533C18.8066 26.3788 17.94 25.9654 17.5266 25.2254C17.3533 24.9321 17.2733 24.6054 17.2733 24.2521ZM25.8333 19.2188C25.8333 18.1654 25.3866 17.7188 24.3333 17.7188H21.6666C20.6133 17.7188 20.1666 18.1654 20.1666 19.2188V20.1721C20.1666 20.5188 20.0733 20.8521 19.8866 21.1454L18.6666 23.0921C18.2666 23.7388 18.16 24.3388 18.3866 24.7454C18.6133 25.1521 19.18 25.3854 19.9333 25.3854H26.06C26.82 25.3854 27.3866 25.1521 27.6066 24.7454C27.8333 24.3388 27.7333 23.7388 27.3266 23.0921L26.1133 21.1454C25.9266 20.8521 25.8333 20.5188 25.8333 20.1721V19.2188Z" fill="#9A9A9E"/>
<path d="M19.8334 27.883C19.8334 27.7763 19.8667 27.6763 19.9334 27.583C20.1 27.363 20.4134 27.3163 20.6334 27.483C22.0267 28.5297 23.9734 28.5297 25.3667 27.483C25.5867 27.3163 25.9 27.363 26.0667 27.583C26.2334 27.803 26.1867 28.1163 25.9667 28.283C24.22 29.5963 21.78 29.5963 20.0334 28.283C19.9 28.1897 19.8334 28.0363 19.8334 27.883Z" fill="#9A9A9E"/>
</svg>
