<svg width="46" height="46" viewBox="0 0 46 46" fill="none" xmlns="http://www.w3.org/2000/svg">
<circle cx="23" cy="23" r="23" fill="#1E2024"/>
<path fill-rule="evenodd" clip-rule="evenodd" d="M17.3999 17.3996C17.3999 17.1874 17.4842 16.984 17.6342 16.8339C17.7842 16.6839 17.9877 16.5996 18.1999 16.5996H27.7999C28.0121 16.5996 28.2156 16.6839 28.3656 16.8339C28.5156 16.984 28.5999 17.1874 28.5999 17.3996V19.7996C28.5999 20.0118 28.5155 20.2152 28.3655 20.3652L24.5999 24.1308V26.9996C24.5999 27.2118 24.5155 27.4152 24.3655 27.5652L22.7655 29.1652C22.6536 29.2771 22.5111 29.3532 22.3559 29.3841C22.2008 29.4149 22.0399 29.3991 21.8938 29.3386C21.7476 29.278 21.6227 29.1755 21.5348 29.044C21.4469 28.9124 21.3999 28.7578 21.3999 28.5996V24.1308L17.6343 20.3652C17.4843 20.2152 17.3999 20.0118 17.3999 19.7996V17.3996Z" stroke="#9A9A9E"/>
</svg>
