<svg width="84" height="84" viewBox="0 0 84 84" fill="none" xmlns="http://www.w3.org/2000/svg">
<path opacity="0.4" d="M51.8292 67.7258C50.632 62.4577 46.0367 60.0859 42.0001 60.0859C42.0001 60.0859 42.0001 60.0859 41.9887 60.0859C37.9635 60.0859 33.3568 62.4463 32.1596 67.7144C30.8254 73.5982 34.4287 78.5811 37.6899 81.7169C38.8986 82.88 40.4493 83.4615 42.0001 83.4615C43.5509 83.4615 45.1016 82.88 46.2989 81.7169C49.5601 78.5811 53.1634 73.6096 51.8292 67.7258Z" fill="#292D32"/>
<path d="M41.9997 73.4337C43.9834 73.4337 45.5915 71.8256 45.5915 69.8419C45.5915 67.8581 43.9834 66.25 41.9997 66.25C40.016 66.25 38.4078 67.8581 38.4078 69.8419C38.4078 71.8256 40.016 73.4337 41.9997 73.4337Z" fill="#292D32"/>
<circle cx="42.0001" cy="39.8474" r="38.7692" fill="#39271D"/>
<path opacity="0.4" d="M51.8291 35.7961C50.6318 30.528 46.0365 28.1562 42 28.1562C42 28.1562 42 28.1562 41.9886 28.1562C37.9634 28.1562 33.3567 30.5166 32.1594 35.7847C30.8253 41.6685 34.4286 46.6515 37.6897 49.7872C38.8984 50.9503 40.4492 51.5318 42 51.5318C43.5507 51.5318 45.1015 50.9503 46.2988 49.7872C49.56 46.6515 53.1632 41.6799 51.8291 35.7961Z" fill="#FF5B00"/>
<path d="M41.9996 41.5118C43.9833 41.5118 45.5914 39.9037 45.5914 37.92C45.5914 35.9363 43.9833 34.3281 41.9996 34.3281C40.0158 34.3281 38.4077 35.9363 38.4077 37.92C38.4077 39.9037 40.0158 41.5118 41.9996 41.5118Z" fill="#FF5B00"/>
</svg>
