<svg width="78" height="78" viewBox="0 0 78 78" fill="none" xmlns="http://www.w3.org/2000/svg">
<path opacity="0.4" d="M48.127 62.8832C47.0153 57.9914 42.7482 55.7891 39 55.7891C39 55.7891 39 55.7891 38.9894 55.7891C35.2518 55.7891 30.9741 57.9808 29.8623 62.8726C28.6235 68.3361 31.9694 72.9632 34.9976 75.8749C36.12 76.9549 37.56 77.4949 39 77.4949C40.44 77.4949 41.88 76.9549 42.9918 75.8749C46.02 72.9632 49.3659 68.3467 48.127 62.8832Z" fill="#292D32"/>
<path d="M38.9996 68.1862C40.8416 68.1862 42.3349 66.693 42.3349 64.8509C42.3349 63.0089 40.8416 61.5156 38.9996 61.5156C37.1576 61.5156 35.6643 63.0089 35.6643 64.8509C35.6643 66.693 37.1576 68.1862 38.9996 68.1862Z" fill="#292D32"/>
<circle cx="39" cy="37" r="36" fill="#39271D"/>
<path opacity="0.4" d="M48.127 33.2426C47.0153 28.3508 42.7482 26.1484 39 26.1484C39 26.1484 39 26.1484 38.9894 26.1484C35.2518 26.1484 30.9741 28.3402 29.8623 33.232C28.6235 38.6955 31.9694 43.3226 34.9976 46.2343C36.12 47.3143 37.56 47.8543 39 47.8543C40.44 47.8543 41.88 47.3143 42.9918 46.2343C46.02 43.3226 49.3659 38.7061 48.127 33.2426Z" fill="#FF5B00"/>
<path d="M38.9995 38.5456C40.8415 38.5456 42.3348 37.0523 42.3348 35.2103C42.3348 33.3683 40.8415 31.875 38.9995 31.875C37.1574 31.875 35.6642 33.3683 35.6642 35.2103C35.6642 37.0523 37.1574 38.5456 38.9995 38.5456Z" fill="#FF5B00"/>
</svg>
