<svg width="16" height="13" viewBox="0 0 16 13" fill="none" xmlns="http://www.w3.org/2000/svg">
<path d="M3 1L12.9999 11.9999" stroke="#7F7F92" stroke-width="1.3" stroke-linecap="round" stroke-linejoin="round"/>
<path d="M9.6815 8.35008C9.19088 8.79601 8.54322 9.0288 7.88097 8.99724C7.21872 8.96567 6.59613 8.67234 6.15015 8.18176C5.70417 7.69118 5.47132 7.04353 5.50283 6.38128C5.53433 5.71903 5.82761 5.09642 6.31815 4.65039" stroke="#7F7F92" stroke-width="1.3" stroke-linecap="round" stroke-linejoin="round"/>
<path d="M4.62461 2.78711C2.07656 4.07744 1 6.49997 1 6.49997C1 6.49997 2.99998 10.9994 7.99992 10.9994C9.1714 11.0088 10.3283 10.7389 11.3747 10.2123" stroke="#7F7F92" stroke-width="1.3" stroke-linecap="round" stroke-linejoin="round"/>
<path d="M13.0387 9.06913C14.4013 7.84869 15.0006 6.50045 15.0006 6.50045C15.0006 6.50045 13.0006 2.00001 8.00063 2.00001C7.56759 1.9993 7.13523 2.03451 6.70801 2.10527" stroke="#7F7F92" stroke-width="1.3" stroke-linecap="round" stroke-linejoin="round"/>
<path d="M8.4707 4.04492C9.00206 4.14695 9.486 4.41851 9.84995 4.81887C10.2139 5.21923 10.4382 5.7268 10.4893 6.26544" stroke="#7F7F92" stroke-width="1.3" stroke-linecap="round" stroke-linejoin="round"/>
</svg>
