<svg width="23" height="18" viewBox="0 0 23 18" fill="none" xmlns="http://www.w3.org/2000/svg">
<path d="M4.10742 1.125L18.393 16.8391" stroke="white" stroke-width="1.6" stroke-linecap="round" stroke-linejoin="round"/>
<path d="M13.6523 11.6251C12.9514 12.2622 12.0262 12.5947 11.0801 12.5496C10.134 12.5045 9.24461 12.0855 8.6075 11.3847C7.97038 10.6838 7.63774 9.75862 7.68275 8.81254C7.72776 7.86647 8.14673 6.97702 8.8475 6.33984" stroke="white" stroke-width="1.6" stroke-linecap="round" stroke-linejoin="round"/>
<path d="M6.42802 3.67773C2.78795 5.52107 1.25 8.98182 1.25 8.98182C1.25 8.98182 4.10711 15.4096 11.2499 15.4096C12.9234 15.423 14.5761 15.0375 16.071 14.2851" stroke="white" stroke-width="1.6" stroke-linecap="round" stroke-linejoin="round"/>
<path d="M18.4481 12.6515C20.3947 10.908 21.2508 8.98195 21.2508 8.98195C21.2508 8.98195 18.3937 2.55275 11.2509 2.55275C10.6323 2.55174 10.0146 2.60203 9.4043 2.70312" stroke="white" stroke-width="1.6" stroke-linecap="round" stroke-linejoin="round"/>
<path d="M11.9219 5.47266C12.6809 5.61842 13.3723 6.00636 13.8922 6.5783C14.4122 7.15024 14.7326 7.87534 14.8056 8.64483" stroke="white" stroke-width="1.6" stroke-linecap="round" stroke-linejoin="round"/>
</svg>
