<svg width="173" height="31" viewBox="0 0 173 31" fill="none" xmlns="http://www.w3.org/2000/svg">
<path d="M13.52 14.48C11.9733 14.48 10.5733 14.7333 9.32 15.24C8.06667 15.72 7.16 16.44 6.6 17.4V30H0.2V9H6.08V13.24C6.8 11.8267 7.73333 10.72 8.88 9.92C10.0267 9.12 11.2267 8.70667 12.48 8.68C12.7733 8.68 12.9867 8.68 13.12 8.68C13.28 8.68 13.4133 8.69333 13.52 8.72V14.48ZM26.8594 30.4C25.0727 30.4 23.4727 30.1067 22.0594 29.52C20.6727 28.9333 19.4994 28.1333 18.5394 27.12C17.5794 26.1067 16.846 24.9467 16.3394 23.64C15.8594 22.3333 15.6194 20.96 15.6194 19.52C15.6194 18.0533 15.8594 16.6667 16.3394 15.36C16.846 14.0533 17.5794 12.8933 18.5394 11.88C19.4994 10.8667 20.6727 10.0667 22.0594 9.48C23.4727 8.89333 25.0727 8.6 26.8594 8.6C28.646 8.6 30.2327 8.89333 31.6194 9.48C33.006 10.0667 34.1794 10.8667 35.1394 11.88C36.0994 12.8933 36.8327 14.0533 37.3394 15.36C37.846 16.6667 38.0994 18.0533 38.0994 19.52C38.0994 20.96 37.846 22.3333 37.3394 23.64C36.8327 24.9467 36.0994 26.1067 35.1394 27.12C34.1794 28.1333 33.006 28.9333 31.6194 29.52C30.2327 30.1067 28.646 30.4 26.8594 30.4ZM22.1794 19.52C22.1794 20.6133 22.3794 21.5733 22.7794 22.4C23.206 23.2267 23.766 23.8667 24.4594 24.32C25.1527 24.7733 25.9527 25 26.8594 25C27.7394 25 28.526 24.7733 29.2194 24.32C29.9394 23.84 30.4994 23.1867 30.8994 22.36C31.2994 21.5333 31.4994 20.5867 31.4994 19.52C31.4994 18.4267 31.2994 17.4667 30.8994 16.64C30.4994 15.8133 29.9394 15.1733 29.2194 14.72C28.526 14.2667 27.7394 14.04 26.8594 14.04C25.9527 14.04 25.1527 14.2667 24.4594 14.72C23.766 15.1733 23.206 15.8133 22.7794 16.64C22.3794 17.4667 22.1794 18.4267 22.1794 19.52ZM52.0734 30.4C50.2868 30.4 48.6868 30.1067 47.2734 29.52C45.8868 28.9333 44.7134 28.1333 43.7534 27.12C42.7934 26.1067 42.0601 24.9467 41.5534 23.64C41.0734 22.3333 40.8334 20.96 40.8334 19.52C40.8334 18.0533 41.0734 16.6667 41.5534 15.36C42.0601 14.0533 42.7934 12.8933 43.7534 11.88C44.7134 10.8667 45.8868 10.0667 47.2734 9.48C48.6868 8.89333 50.2868 8.6 52.0734 8.6C53.8601 8.6 55.4468 8.89333 56.8334 9.48C58.2201 10.0667 59.3934 10.8667 60.3534 11.88C61.3134 12.8933 62.0468 14.0533 62.5534 15.36C63.0601 16.6667 63.3134 18.0533 63.3134 19.52C63.3134 20.96 63.0601 22.3333 62.5534 23.64C62.0468 24.9467 61.3134 26.1067 60.3534 27.12C59.3934 28.1333 58.2201 28.9333 56.8334 29.52C55.4468 30.1067 53.8601 30.4 52.0734 30.4ZM47.3934 19.52C47.3934 20.6133 47.5934 21.5733 47.9934 22.4C48.4201 23.2267 48.9801 23.8667 49.6734 24.32C50.3668 24.7733 51.1668 25 52.0734 25C52.9534 25 53.7401 24.7733 54.4334 24.32C55.1534 23.84 55.7134 23.1867 56.1134 22.36C56.5134 21.5333 56.7134 20.5867 56.7134 19.52C56.7134 18.4267 56.5134 17.4667 56.1134 16.64C55.7134 15.8133 55.1534 15.1733 54.4334 14.72C53.7401 14.2667 52.9534 14.04 52.0734 14.04C51.1668 14.04 50.3668 14.2667 49.6734 14.72C48.9801 15.1733 48.4201 15.8133 47.9934 16.64C47.5934 17.4667 47.3934 18.4267 47.3934 19.52ZM80.575 28.88C79.9883 29.12 79.335 29.36 78.615 29.6C77.9217 29.84 77.1883 30.0267 76.415 30.16C75.6417 30.32 74.8817 30.4 74.135 30.4C73.0683 30.4 72.0817 30.2267 71.175 29.88C70.295 29.5067 69.5883 28.9067 69.055 28.08C68.5483 27.2533 68.295 26.16 68.295 24.8V13.84H65.615V9H68.295V2.32H74.695V9H78.975V13.84H74.695V22.6C74.695 23.2933 74.8683 23.8 75.215 24.12C75.5617 24.4133 76.0017 24.56 76.535 24.56C76.9883 24.56 77.4683 24.48 77.975 24.32C78.5083 24.16 78.9617 23.9867 79.335 23.8L80.575 28.88ZM91.9087 30.4C90.1221 30.4 88.3754 30.1067 86.6687 29.52C84.9621 28.9333 83.5221 28.0667 82.3487 26.92L84.5487 22.88C85.8287 23.8133 87.0687 24.52 88.2687 25C89.4954 25.48 90.6421 25.72 91.7087 25.72C92.5354 25.72 93.1754 25.5867 93.6287 25.32C94.0821 25.0533 94.3087 24.64 94.3087 24.08C94.3087 23.68 94.1754 23.3733 93.9087 23.16C93.6421 22.92 93.2287 22.7067 92.6687 22.52C92.1354 22.3333 91.4687 22.1333 90.6687 21.92C89.0687 21.3867 87.7354 20.8667 86.6687 20.36C85.6021 19.8533 84.8021 19.24 84.2687 18.52C83.7354 17.7733 83.4687 16.8133 83.4687 15.64C83.4687 14.2267 83.8154 13 84.5087 11.96C85.2287 10.8933 86.2421 10.0667 87.5487 9.48C88.8554 8.89333 90.4154 8.6 92.2287 8.6C93.6687 8.6 95.0687 8.82667 96.4287 9.28C97.8154 9.73333 99.1087 10.4933 100.309 11.56L97.8287 15.56C96.6287 14.7333 95.5621 14.1333 94.6287 13.76C93.6954 13.3867 92.7887 13.2 91.9087 13.2C91.4554 13.2 91.0421 13.2533 90.6687 13.36C90.2954 13.4667 89.9887 13.6533 89.7487 13.92C89.5354 14.16 89.4287 14.48 89.4287 14.88C89.4287 15.28 89.5354 15.6 89.7487 15.84C89.9887 16.08 90.3487 16.2933 90.8287 16.48C91.3354 16.64 91.9621 16.84 92.7087 17.08C94.4421 17.5867 95.8821 18.1067 97.0287 18.64C98.1754 19.1467 99.0287 19.7867 99.5887 20.56C100.175 21.3067 100.469 22.3067 100.469 23.56C100.469 25.6933 99.6954 27.3733 98.1487 28.6C96.6287 29.8 94.5487 30.4 91.9087 30.4ZM120.872 30H118.872V18.4C118.872 15.84 118.432 13.92 117.552 12.64C116.672 11.3333 115.392 10.68 113.712 10.68C112.618 10.68 111.525 10.96 110.432 11.52C109.338 12.08 108.392 12.8533 107.592 13.84C106.792 14.8 106.218 15.8933 105.872 17.12V30H103.872V0.799999H105.872V14.16C106.725 12.5333 107.912 11.24 109.432 10.28C110.952 9.32 112.565 8.84 114.272 8.84C115.445 8.84 116.445 9.05333 117.272 9.48C118.098 9.90667 118.778 10.52 119.312 11.32C119.845 12.12 120.232 13.08 120.472 14.2C120.738 15.32 120.872 16.6 120.872 18.04V30ZM126.118 30V9.2H128.118V30H126.118ZM126.118 4.48V0.799999H128.118V4.48H126.118ZM140 30L131.32 9.2H133.44L141.08 27.88L148.76 9.2H150.76L142.08 30H140ZM162.069 30.4C160.603 30.4 159.243 30.12 157.989 29.56C156.736 28.9733 155.643 28.1867 154.709 27.2C153.803 26.1867 153.083 25.0267 152.549 23.72C152.043 22.3867 151.789 20.9867 151.789 19.52C151.789 17.5467 152.229 15.76 153.109 14.16C153.989 12.56 155.203 11.28 156.749 10.32C158.296 9.33333 160.029 8.84 161.949 8.84C163.923 8.84 165.669 9.33333 167.189 10.32C168.709 11.3067 169.909 12.6133 170.789 14.24C171.696 15.84 172.149 17.6 172.149 19.52C172.149 19.68 172.149 19.84 172.149 20C172.149 20.16 172.136 20.2933 172.109 20.4H153.869C153.976 21.9733 154.416 23.4 155.189 24.68C155.963 25.96 156.949 26.9733 158.149 27.72C159.376 28.44 160.709 28.8 162.149 28.8C163.589 28.8 164.949 28.4267 166.229 27.68C167.509 26.9333 168.403 25.9733 168.909 24.8L170.669 25.28C170.269 26.2667 169.629 27.1467 168.749 27.92C167.896 28.6933 166.883 29.3067 165.709 29.76C164.563 30.1867 163.349 30.4 162.069 30.4ZM153.789 18.84H170.229C170.123 17.2133 169.696 15.7733 168.949 14.52C168.203 13.2667 167.216 12.28 165.989 11.56C164.789 10.84 163.456 10.48 161.989 10.48C160.523 10.48 159.189 10.84 157.989 11.56C156.789 12.28 155.816 13.2667 155.069 14.52C154.323 15.7733 153.896 17.2133 153.789 18.84Z" fill="#001E5A"/>
</svg>
