<svg width="171" height="31" viewBox="0 0 171 31" fill="none" xmlns="http://www.w3.org/2000/svg">
<path d="M12.92 13.68C11.2933 13.68 9.84 14 8.56 14.64C7.28 15.2533 6.36 16.1467 5.8 17.32V30H0.44V9.04H5.36V13.52C6.10667 12.08 7.05333 10.9467 8.2 10.12C9.34667 9.29333 10.56 8.84 11.84 8.76C12.1333 8.76 12.36 8.76 12.52 8.76C12.68 8.76 12.8133 8.77333 12.92 8.8V13.68ZM26.1153 30.4C24.4086 30.4 22.8753 30.12 21.5153 29.56C20.1553 28.9733 18.9953 28.1733 18.0353 27.16C17.102 26.1467 16.382 24.9867 15.8753 23.68C15.3686 22.3733 15.1153 21 15.1153 19.56C15.1153 18.0933 15.3686 16.7067 15.8753 15.4C16.382 14.0933 17.102 12.9333 18.0353 11.92C18.9953 10.9067 20.1553 10.12 21.5153 9.56C22.8753 8.97333 24.4086 8.68 26.1153 8.68C27.822 8.68 29.342 8.97333 30.6753 9.56C32.0353 10.12 33.1953 10.9067 34.1553 11.92C35.1153 12.9333 35.8353 14.0933 36.3153 15.4C36.822 16.7067 37.0753 18.0933 37.0753 19.56C37.0753 21 36.822 22.3733 36.3153 23.68C35.8353 24.9867 35.1153 26.1467 34.1553 27.16C33.222 28.1733 32.0753 28.9733 30.7153 29.56C29.3553 30.12 27.822 30.4 26.1153 30.4ZM20.6353 19.56C20.6353 20.7867 20.8753 21.88 21.3553 22.84C21.8353 23.7733 22.4886 24.5067 23.3153 25.04C24.142 25.5733 25.0753 25.84 26.1153 25.84C27.1286 25.84 28.0486 25.5733 28.8753 25.04C29.702 24.48 30.3553 23.7333 30.8353 22.8C31.342 21.84 31.5953 20.7467 31.5953 19.52C31.5953 18.32 31.342 17.24 30.8353 16.28C30.3553 15.32 29.702 14.5733 28.8753 14.04C28.0486 13.5067 27.1286 13.24 26.1153 13.24C25.0753 13.24 24.142 13.52 23.3153 14.08C22.4886 14.6133 21.8353 15.36 21.3553 16.32C20.8753 17.2533 20.6353 18.3333 20.6353 19.56ZM51.1731 30.4C49.4665 30.4 47.9331 30.12 46.5731 29.56C45.2131 28.9733 44.0531 28.1733 43.0931 27.16C42.1598 26.1467 41.4398 24.9867 40.9331 23.68C40.4265 22.3733 40.1731 21 40.1731 19.56C40.1731 18.0933 40.4265 16.7067 40.9331 15.4C41.4398 14.0933 42.1598 12.9333 43.0931 11.92C44.0531 10.9067 45.2131 10.12 46.5731 9.56C47.9331 8.97333 49.4665 8.68 51.1731 8.68C52.8798 8.68 54.3998 8.97333 55.7331 9.56C57.0931 10.12 58.2531 10.9067 59.2131 11.92C60.1731 12.9333 60.8931 14.0933 61.3731 15.4C61.8798 16.7067 62.1331 18.0933 62.1331 19.56C62.1331 21 61.8798 22.3733 61.3731 23.68C60.8931 24.9867 60.1731 26.1467 59.2131 27.16C58.2798 28.1733 57.1331 28.9733 55.7731 29.56C54.4131 30.12 52.8798 30.4 51.1731 30.4ZM45.6931 19.56C45.6931 20.7867 45.9331 21.88 46.4131 22.84C46.8931 23.7733 47.5465 24.5067 48.3731 25.04C49.1998 25.5733 50.1331 25.84 51.1731 25.84C52.1865 25.84 53.1065 25.5733 53.9331 25.04C54.7598 24.48 55.4131 23.7333 55.8931 22.8C56.3998 21.84 56.6531 20.7467 56.6531 19.52C56.6531 18.32 56.3998 17.24 55.8931 16.28C55.4131 15.32 54.7598 14.5733 53.9331 14.04C53.1065 13.5067 52.1865 13.24 51.1731 13.24C50.1331 13.24 49.1998 13.52 48.3731 14.08C47.5465 14.6133 46.8931 15.36 46.4131 16.32C45.9331 17.2533 45.6931 18.3333 45.6931 19.56ZM78.7984 28.92C78.3451 29.1067 77.7984 29.32 77.1584 29.56C76.5184 29.8 75.8251 29.9867 75.0784 30.12C74.3584 30.28 73.6251 30.36 72.8784 30.36C71.8918 30.36 70.9851 30.1867 70.1584 29.84C69.3318 29.4933 68.6651 28.9467 68.1584 28.2C67.6784 27.4267 67.4384 26.4267 67.4384 25.2V13.16H64.6784V9.04H67.4384V2.24H72.7984V9.04H77.1984V13.16H72.7984V23.4C72.8251 24.12 73.0251 24.64 73.3984 24.96C73.7718 25.28 74.2384 25.44 74.7984 25.44C75.3584 25.44 75.9051 25.3467 76.4384 25.16C76.9718 24.9733 77.3984 24.8133 77.7184 24.68L78.7984 28.92ZM90.11 30.4C88.3233 30.4 86.6167 30.1067 84.99 29.52C83.3633 28.9333 81.9633 28.0667 80.79 26.92L82.71 23.44C83.9633 24.4533 85.19 25.2 86.39 25.68C87.6167 26.16 88.79 26.4 89.91 26.4C90.95 26.4 91.7767 26.2133 92.39 25.84C93.03 25.4667 93.35 24.9067 93.35 24.16C93.35 23.6533 93.1767 23.2667 92.83 23C92.4833 22.7067 91.9767 22.4533 91.31 22.24C90.67 22.0267 89.8833 21.7867 88.95 21.52C87.4033 21.0133 86.11 20.52 85.07 20.04C84.03 19.56 83.2433 18.96 82.71 18.24C82.2033 17.4933 81.95 16.5467 81.95 15.4C81.95 14.0133 82.2967 12.8267 82.99 11.84C83.71 10.8267 84.6967 10.04 85.95 9.48C87.23 8.92 88.7233 8.64 90.43 8.64C91.9233 8.64 93.3367 8.88 94.67 9.36C96.0033 9.81333 97.2167 10.56 98.31 11.6L96.15 15C95.0833 14.1733 94.07 13.5733 93.11 13.2C92.15 12.8 91.1767 12.6 90.19 12.6C89.63 12.6 89.0967 12.6667 88.59 12.8C88.11 12.9333 87.71 13.16 87.39 13.48C87.0967 13.7733 86.95 14.2 86.95 14.76C86.95 15.2667 87.0833 15.6667 87.35 15.96C87.6433 16.2267 88.07 16.4667 88.63 16.68C89.2167 16.8933 89.9233 17.1333 90.75 17.4C92.43 17.88 93.8433 18.3733 94.99 18.88C96.1633 19.3867 97.0433 20.0133 97.63 20.76C98.2167 21.48 98.51 22.48 98.51 23.76C98.51 25.84 97.75 27.4667 96.23 28.64C94.71 29.8133 92.67 30.4 90.11 30.4ZM119.036 30H117.036V18.4C117.036 15.84 116.596 13.92 115.716 12.64C114.836 11.3333 113.556 10.68 111.876 10.68C110.782 10.68 109.689 10.96 108.596 11.52C107.502 12.08 106.556 12.8533 105.756 13.84C104.956 14.8 104.382 15.8933 104.036 17.12V30H102.036V0.799999H104.036V14.16C104.889 12.5333 106.076 11.24 107.596 10.28C109.116 9.32 110.729 8.84 112.436 8.84C113.609 8.84 114.609 9.05333 115.436 9.48C116.262 9.90667 116.942 10.52 117.476 11.32C118.009 12.12 118.396 13.08 118.636 14.2C118.902 15.32 119.036 16.6 119.036 18.04V30ZM124.282 30V9.2H126.282V30H124.282ZM124.282 4.48V0.799999H126.282V4.48H124.282ZM138.164 30L129.484 9.2H131.604L139.244 27.88L146.924 9.2H148.924L140.244 30H138.164ZM160.233 30.4C158.767 30.4 157.407 30.12 156.153 29.56C154.9 28.9733 153.807 28.1867 152.873 27.2C151.967 26.1867 151.247 25.0267 150.713 23.72C150.207 22.3867 149.953 20.9867 149.953 19.52C149.953 17.5467 150.393 15.76 151.273 14.16C152.153 12.56 153.367 11.28 154.913 10.32C156.46 9.33333 158.193 8.84 160.113 8.84C162.087 8.84 163.833 9.33333 165.353 10.32C166.873 11.3067 168.073 12.6133 168.953 14.24C169.86 15.84 170.313 17.6 170.313 19.52C170.313 19.68 170.313 19.84 170.313 20C170.313 20.16 170.3 20.2933 170.273 20.4H152.033C152.14 21.9733 152.58 23.4 153.353 24.68C154.127 25.96 155.113 26.9733 156.313 27.72C157.54 28.44 158.873 28.8 160.313 28.8C161.753 28.8 163.113 28.4267 164.393 27.68C165.673 26.9333 166.567 25.9733 167.073 24.8L168.833 25.28C168.433 26.2667 167.793 27.1467 166.913 27.92C166.06 28.6933 165.047 29.3067 163.873 29.76C162.727 30.1867 161.513 30.4 160.233 30.4ZM151.953 18.84H168.393C168.287 17.2133 167.86 15.7733 167.113 14.52C166.367 13.2667 165.38 12.28 164.153 11.56C162.953 10.84 161.62 10.48 160.153 10.48C158.687 10.48 157.353 10.84 156.153 11.56C154.953 12.28 153.98 13.2667 153.233 14.52C152.487 15.7733 152.06 17.2133 151.953 18.84Z" fill="#D0E5F7"/>
</svg>
