<svg width="152" height="30" viewBox="0 0 152 30" fill="none" xmlns="http://www.w3.org/2000/svg">
<path d="M5.23544 0.0585938H0.00244141V28.5945H5.23544V0.0585938Z" fill="white"/>
<path d="M24.7214 8.33194C22.954 7.16211 20.8756 6.50952 18.7348 6.45224H18.3293C16.8439 6.44242 15.3721 6.72729 14.0049 7.28925C12.6377 7.8512 11.4042 8.67832 10.3804 9.71951C9.26039 10.7776 8.37431 12.0447 7.77592 13.444C7.17754 14.8434 6.87933 16.3457 6.89939 17.86C6.8619 20.7912 8.02697 23.6173 10.1394 25.7192C11.1509 26.784 12.3768 27.6376 13.7418 28.2275C15.1068 28.8173 16.582 29.131 18.0769 29.1493H18.4862C19.983 29.1588 21.4664 28.8753 22.8469 28.3157C24.2275 27.7561 25.4767 26.932 26.5193 25.8931C27.6537 24.8584 28.5473 23.6019 29.1409 22.2073C29.7345 20.8127 30.0144 19.3118 29.962 17.8044V0.158203H24.7214V8.33194ZM18.1993 24.1429C17.3767 24.1255 16.5672 23.9398 15.8241 23.598C15.081 23.2561 14.4212 22.7659 13.8882 22.1596C12.7089 20.9406 12.0727 19.3217 12.1171 17.6527C12.1094 16.8299 12.275 16.0141 12.6038 15.2552C12.9327 14.4963 13.4178 13.8101 14.0297 13.2384C14.5968 12.6607 15.2815 12.203 16.0406 11.8942C16.7998 11.5853 17.6168 11.4319 18.4403 11.4438H18.5359C19.3444 11.4316 20.1464 11.5849 20.8893 11.8935C21.6323 12.2022 22.2994 12.6592 22.847 13.2347C24.0415 14.4123 24.7116 15.9956 24.7137 17.6453C24.7573 18.5106 24.6138 19.375 24.2924 20.1836C23.9709 20.9921 23.4787 21.7268 22.847 22.3409C22.3155 22.926 21.6604 23.3939 20.9259 23.7131C20.1914 24.0322 19.3947 24.1952 18.5895 24.191H18.2069L18.1993 24.1429Z" fill="white"/>
<path d="M43.1133 6.3528C42.9794 6.3528 42.8417 6.3528 42.7078 6.3528C41.2209 6.34273 39.7477 6.62708 38.3787 7.18833C37.0097 7.74959 35.7739 8.57588 34.7474 9.61637C33.6256 10.6735 32.7379 11.9403 32.1381 13.3398C31.5384 14.7392 31.2392 16.242 31.2587 17.7568C31.2208 20.6881 32.3859 23.5143 34.4987 25.616C35.5137 26.6798 36.7426 27.5318 38.1102 28.1197C39.4777 28.7077 40.9551 29.0191 42.4515 29.035H42.8608C44.3497 29.0434 45.8247 28.7584 47.1959 28.1973C48.5671 27.6362 49.8059 26.8108 50.8365 25.7714C53.0344 23.6779 54.2925 20.832 54.3391 17.8487C54.3856 14.8653 53.2168 11.9839 51.0852 9.82728C50.0674 8.75797 48.8364 7.89891 47.4664 7.3018C46.0964 6.70469 44.6156 6.38188 43.1133 6.3528ZM42.5395 24.0434C41.7191 24.0238 40.9123 23.8366 40.172 23.4942C39.4316 23.1517 38.7745 22.6618 38.2437 22.0564C37.6597 21.4549 37.2054 20.7469 36.9072 19.9738C36.609 19.2006 36.473 18.3778 36.507 17.5533C36.4988 16.7265 36.6641 15.9067 36.9928 15.1435C37.3216 14.3803 37.807 13.6896 38.4196 13.1131C38.9892 12.5393 39.6755 12.0859 40.4353 11.7814C41.1951 11.477 42.0118 11.3282 42.834 11.3444H42.9297C43.7331 11.332 44.5301 11.4853 45.2675 11.7941C46.0049 12.1029 46.6658 12.5601 47.2063 13.1353C48.4298 14.3517 49.1144 15.9819 49.1144 17.6791C49.1144 19.3763 48.4298 21.0065 47.2063 22.2229C46.6731 22.8047 46.0172 23.2691 45.2828 23.5851C44.5484 23.901 43.7525 24.0611 42.9488 24.0545C42.8302 24.0545 42.704 24.0545 42.5663 24.0545L42.5395 24.0434Z" fill="white"/>
<path d="M65.5601 6.38627C64.2104 6.35096 62.8677 6.58655 61.6168 7.0782C60.3659 7.56985 59.2338 8.30688 58.2921 9.24282C57.3423 10.1811 56.5972 11.2945 56.1011 12.5169C55.6049 13.7392 55.3679 15.0456 55.404 16.3583V28.5949H60.637V16.0845C60.629 15.4656 60.7549 14.852 61.0065 14.283C61.2582 13.7139 61.63 13.2021 62.0982 12.7802C62.5426 12.3364 63.0747 11.9836 63.6628 11.7426C64.2509 11.5016 64.8831 11.3774 65.5219 11.3774C66.1606 11.3774 66.7928 11.5016 67.3809 11.7426C67.9691 11.9836 68.5011 12.3364 68.9455 12.7802C69.4137 13.2021 69.7855 13.7139 70.0372 14.283C70.2888 14.852 70.4147 15.4656 70.4067 16.0845V28.5949H75.6397V16.3583C75.6759 15.0456 75.4388 13.7392 74.9427 12.5169C74.4465 11.2945 73.7014 10.1811 72.7516 9.24282C71.8202 8.31416 70.7009 7.58121 69.4636 7.08972C68.2262 6.59823 66.8974 6.35876 65.5601 6.38627Z" fill="white"/>
<path d="M82.1617 0.0253906H76.9287V28.5946H82.1617V0.0253906Z" fill="white"/>
<path d="M95.5083 6.35287H95.0034C93.527 6.34149 92.0639 6.62254 90.7041 7.17871C89.3443 7.73489 88.1165 8.55442 87.0965 9.58684C85.9747 10.644 85.087 11.9108 84.4873 13.3102C83.8875 14.7097 83.5883 16.2125 83.6078 17.7273C83.5707 20.6598 84.7388 23.4867 86.8555 25.5865C87.862 26.6493 89.0803 27.5042 90.4371 28.1C91.7939 28.6959 93.2612 29.0202 94.7509 29.0536H95.1334C97.3916 29.0762 99.5998 28.4108 101.445 27.1517V28.5948H106.678V17.6977C106.741 16.2459 106.493 14.7973 105.949 13.4428C105.406 12.0883 104.578 10.8574 103.518 9.82736C102.491 8.75995 101.253 7.90255 99.877 7.30578C98.5012 6.70902 97.0157 6.385 95.5083 6.35287ZM94.9039 24.0435C94.08 24.0131 93.2716 23.8179 92.5296 23.4702C91.7876 23.1225 91.1281 22.6298 90.5928 22.0232C90.005 21.4259 89.5471 20.7205 89.2461 19.9489C88.9452 19.1774 88.8074 18.3552 88.8408 17.5312C88.8348 16.7129 89.0014 15.9021 89.3302 15.1482C89.6591 14.3943 90.1433 13.7132 90.7535 13.1464C91.3379 12.5594 92.0417 12.0958 92.8206 11.785C93.5994 11.4742 94.4364 11.323 95.2788 11.3407C96.0847 11.3307 96.8838 11.4849 97.6239 11.7935C98.3641 12.1021 99.0287 12.558 99.5746 13.1316C100.775 14.3012 101.448 15.8831 101.445 17.5312C101.478 18.3979 101.325 19.2618 100.995 20.0686C100.666 20.8754 100.168 21.6076 99.5325 22.2193C98.9875 22.8089 98.3185 23.2789 97.5703 23.598C96.8222 23.9171 96.0122 24.0778 95.1946 24.0694L94.9039 24.0435Z" fill="white"/>
<path d="M118.012 6.38568C116.666 6.35361 115.327 6.59076 114.08 7.0823C112.833 7.57383 111.704 8.30915 110.764 9.24223C109.812 10.18 109.065 11.2931 108.567 12.5154C108.069 13.7377 107.83 15.0443 107.864 16.3577V28.5943H113.097V16.0839C113.089 15.465 113.215 14.8514 113.467 14.2824C113.718 13.7133 114.09 13.2015 114.558 12.7796C115.002 12.3359 115.534 11.9831 116.122 11.7422C116.71 11.5013 117.342 11.3771 117.98 11.3771C118.618 11.3771 119.25 11.5013 119.838 11.7422C120.426 11.9831 120.958 12.3359 121.402 12.7796C121.871 13.2011 122.243 13.7129 122.495 14.2819C122.748 14.851 122.874 15.4648 122.867 16.0839V28.5943H128.096V16.3577C128.133 15.0452 127.896 13.739 127.401 12.5166C126.905 11.2942 126.161 10.1807 125.212 9.24223C124.279 8.31301 123.159 7.57976 121.92 7.08826C120.681 6.59677 119.351 6.3576 118.012 6.38568Z" fill="white"/>
<path d="M146.767 0.158203V8.33194C144.995 7.15873 142.909 6.50598 140.762 6.45224L140.379 6.43004C138.894 6.42022 137.422 6.70509 136.055 7.26704C134.688 7.829 133.454 8.65612 132.43 9.69731C131.31 10.7554 130.424 12.0225 129.826 13.4218C129.227 14.8212 128.929 16.3235 128.949 17.8377C128.912 20.769 130.077 23.5951 132.189 25.697C133.201 26.7618 134.427 27.6154 135.792 28.2053C137.157 28.7951 138.632 29.1088 140.127 29.1271H140.536C142.033 29.1366 143.516 28.8531 144.897 28.2935C146.277 27.7339 147.526 26.9098 148.569 25.8709C149.707 24.8378 150.604 23.5821 151.201 22.1874C151.798 20.7927 152.081 19.291 152.031 17.7822V0.158203H146.767ZM140.245 24.1429C139.423 24.1255 138.613 23.9398 137.87 23.598C137.127 23.2561 136.467 22.7659 135.934 22.1596C134.755 20.9406 134.119 19.3217 134.163 17.6527C134.155 16.8299 134.321 16.0141 134.65 15.2552C134.979 14.4963 135.464 13.8101 136.076 13.2384C136.643 12.6607 137.327 12.203 138.087 11.8942C138.846 11.5853 139.663 11.4319 140.486 11.4438H140.578C141.387 11.43 142.189 11.5825 142.933 11.8913C143.676 12.2 144.343 12.6579 144.889 13.2347C146.087 14.4106 146.759 15.9947 146.76 17.6453C146.803 18.5106 146.66 19.375 146.338 20.1836C146.017 20.9921 145.525 21.7268 144.893 22.3409C144.361 22.926 143.706 23.3939 142.972 23.7131C142.237 24.0322 141.441 24.1952 140.635 24.191H140.272L140.245 24.1429Z" fill="white"/>
</svg>
