<svg width="21" height="21" viewBox="0 0 21 21" fill="none" xmlns="http://www.w3.org/2000/svg">
<path d="M13.125 19.25C12.7663 19.25 12.4688 18.9525 12.4688 18.5938V2.40625C12.4688 2.0475 12.7663 1.75 13.125 1.75C13.4837 1.75 13.7812 2.0475 13.7812 2.40625V18.5938C13.7812 18.9525 13.4837 19.25 13.125 19.25Z" fill="#242B3E"/>
<path opacity="0.4" d="M5.6875 17.5H10.9375V3.5H5.6875C3.75375 3.5 2.1875 5.06625 2.1875 7V14C2.1875 15.9338 3.75375 17.5 5.6875 17.5Z" fill="#242B3E"/>
<path opacity="0.4" d="M15.75 17.5H13.125V3.5H15.75C17.6838 3.5 19.25 5.06625 19.25 7V14C19.25 15.9338 17.6838 17.5 15.75 17.5Z" fill="#242B3E"/>
<path d="M5.03125 11.3758C4.9175 11.3758 4.80375 11.3495 4.69875 11.3058C4.59375 11.262 4.4975 11.2008 4.41 11.122C4.33125 11.0345 4.27 10.9383 4.2175 10.8333C4.17375 10.7283 4.15625 10.6145 4.15625 10.5008C4.15625 10.2733 4.2525 10.0458 4.41 9.87952C4.45375 9.84452 4.4975 9.80952 4.54125 9.77452C4.59375 9.73952 4.64625 9.71327 4.69875 9.69577C4.75125 9.66952 4.80375 9.65202 4.85625 9.64327C5.15375 9.58202 5.45125 9.67827 5.6525 9.87952C5.81 10.0458 5.90625 10.2733 5.90625 10.5008C5.90625 10.6145 5.88 10.7283 5.83625 10.8333C5.7925 10.9383 5.73125 11.0345 5.6525 11.122C5.565 11.2008 5.46875 11.262 5.36375 11.3058C5.25875 11.3495 5.145 11.3758 5.03125 11.3758Z" fill="#242B3E"/>
<path d="M8.09375 11.3758C7.98 11.3758 7.86625 11.3495 7.76125 11.3058C7.65625 11.262 7.56 11.2008 7.4725 11.122C7.30625 10.9558 7.21875 10.737 7.21875 10.5008C7.21875 10.387 7.245 10.2733 7.28875 10.1683C7.3325 10.0545 7.39375 9.96703 7.4725 9.87953C7.79625 9.55578 8.3825 9.55578 8.715 9.87953C8.8725 10.0458 8.96875 10.2733 8.96875 10.5008C8.96875 10.6145 8.9425 10.7283 8.89875 10.8333C8.855 10.9383 8.79375 11.0345 8.715 11.122C8.6275 11.2008 8.53125 11.262 8.42625 11.3058C8.32125 11.3495 8.2075 11.3758 8.09375 11.3758Z" fill="#242B3E"/>
</svg>
