<svg width="46" height="46" viewBox="0 0 46 46" fill="none" xmlns="http://www.w3.org/2000/svg">
<circle cx="23" cy="23" r="23" transform="matrix(-1 0 0 1 46 0)" fill="#CC4900"/>
<path d="M18.6449 28.0895H24.9782C27.4878 28.0895 29.5303 26.047 29.5303 23.5374C29.5303 21.0279 27.4878 18.9854 24.9782 18.9854H16.2699C15.9453 18.9854 15.6761 19.2545 15.6761 19.5791C15.6761 19.9037 15.9453 20.1729 16.2699 20.1729H24.9782C26.8307 20.1729 28.3428 21.6849 28.3428 23.5374C28.3428 25.3899 26.8307 26.902 24.9782 26.902H18.6449C18.3203 26.902 18.0511 27.1712 18.0511 27.4958C18.0511 27.8204 18.3124 28.0895 18.6449 28.0895Z" fill="white"/>
<path d="M18.0908 22.1519C18.2413 22.1519 18.3917 22.0965 18.5104 21.9778C18.74 21.7482 18.74 21.3682 18.5104 21.1386L16.9033 19.5315L18.5104 17.9244C18.74 17.6949 18.74 17.3149 18.5104 17.0853C18.2808 16.8557 17.9008 16.8557 17.6713 17.0853L15.6446 19.1119C15.415 19.3415 15.415 19.7215 15.6446 19.9511L17.6713 21.9778C17.79 22.0965 17.9404 22.1519 18.0908 22.1519Z" fill="white"/>
</svg>
