<svg width="161" height="161" viewBox="0 0 161 161" fill="none" xmlns="http://www.w3.org/2000/svg">
<path opacity="0.4" d="M36.693 60.3753C49.6602 60.3753 60.1722 49.8633 60.1722 36.8962C60.1722 23.929 49.6602 13.417 36.693 13.417C23.7258 13.417 13.2139 23.929 13.2139 36.8962C13.2139 49.8633 23.7258 60.3753 36.693 60.3753Z" fill="#CC4900"/>
<path opacity="0.4" d="M114.042 100.625H134.167C141.546 100.625 147.583 106.662 147.583 114.042V134.167C147.583 141.546 141.546 147.583 134.167 147.583H114.042C106.662 147.583 100.625 141.546 100.625 134.167V114.042C100.625 106.662 106.662 100.625 114.042 100.625Z" fill="#CEFDC6"/>
<path d="M80.5029 132.49H62.5246C54.7429 132.49 47.9675 127.794 45.2842 120.549C42.5338 113.304 44.5463 105.321 50.3825 100.156L103.982 53.2645C107.202 50.447 107.269 46.6232 106.33 44.007C105.324 41.3907 102.775 38.5732 98.4813 38.5732H80.5029C77.7525 38.5732 75.4717 36.2924 75.4717 33.542C75.4717 30.7916 77.7525 28.5107 80.5029 28.5107H98.4813C106.263 28.5107 113.038 33.2066 115.722 40.4516C118.472 47.6966 116.46 55.6795 110.623 60.8449L57.0238 107.736C53.8038 110.554 53.7367 114.377 54.6758 116.994C55.6821 119.61 58.2312 122.427 62.5246 122.427H80.5029C83.2533 122.427 85.5342 124.708 85.5342 127.459C85.5342 130.209 83.2533 132.49 80.5029 132.49Z" fill="#484848"/>
<path d="M124.169 130.812C120.48 130.812 117.461 127.793 117.461 124.104C117.461 120.414 120.413 117.396 124.169 117.396H124.236C127.926 117.396 130.945 120.414 130.945 124.104C130.945 127.793 127.926 130.812 124.169 130.812Z" fill="#00FF47"/>
<path d="M36.9613 43.6042C33.2717 43.6042 30.2529 40.5854 30.2529 36.8958C30.2529 33.2062 33.2046 30.1875 36.9613 30.1875H37.0283C40.7179 30.1875 43.7367 33.2062 43.7367 36.8958C43.7367 40.5854 40.7179 43.6042 36.9613 43.6042Z" fill="#CC4900"/>
</svg>
