<svg width="46" height="46" viewBox="0 0 46 46" fill="none" xmlns="http://www.w3.org/2000/svg">
<circle cx="23" cy="23" r="23" fill="#1E2024"/>
<path d="M24.1228 25.2321L24.1917 25.1831L24.2515 25.2429L28.1045 29.0958C28.2364 29.223 28.413 29.2933 28.5962 29.2917C28.7798 29.2901 28.9553 29.2165 29.0851 29.0867C29.2149 28.9569 29.2885 28.7814 29.2901 28.5978C29.2917 28.4146 29.2214 28.238 29.0942 28.1061L25.2421 24.2539L25.1823 24.1941L25.2313 24.1252C25.7313 23.4221 26.0281 22.5949 26.0891 21.7342C26.1502 20.8736 25.9732 20.0128 25.5775 19.2461C25.1818 18.4794 24.5827 17.8364 23.8458 17.3875C23.109 16.9387 22.2628 16.7014 21.4 16.7016L21.4 16.6016L21.4 16.7016C20.6603 16.7015 19.931 16.876 19.2714 17.2109C18.6119 17.5458 18.0407 18.0316 17.6043 18.6289C17.168 19.2261 16.8787 19.918 16.7602 20.6481C16.6416 21.3782 16.697 22.1261 16.9219 22.8307C17.1468 23.5354 17.5349 24.177 18.0546 24.7034C18.5742 25.2299 19.2108 25.6262 19.9125 25.8602C20.6142 26.0942 21.3613 26.1593 22.0929 26.0501C22.8245 25.941 23.52 25.6607 24.1228 25.2321ZM18.1 21.4016C18.1 20.5263 18.4477 19.687 19.0665 19.0681C19.6854 18.4492 20.5248 18.1016 21.4 18.1016C22.2752 18.1016 23.1146 18.4492 23.7334 19.0681C24.3523 19.687 24.7 20.5263 24.7 21.4016C24.7 22.2768 24.3523 23.1161 23.7334 23.735C23.1146 24.3539 22.2752 24.7016 21.4 24.7016C20.5248 24.7016 19.6854 24.3539 19.0665 23.735C18.4477 23.1161 18.1 22.2768 18.1 21.4016Z" fill="#9A9A9E" stroke="#1E2024" stroke-width="0.2"/>
</svg>
