<svg width="20" height="22" viewBox="0 0 20 22" fill="none" xmlns="http://www.w3.org/2000/svg">
<path opacity="0.4" d="M3.05872 20.1449H16.4257C16.7402 20.1449 17.0547 19.8908 17.0547 19.4675C17.0547 19.0441 16.8188 18.79 16.4257 18.79H3.05872C2.7442 18.79 2.42969 19.0441 2.42969 19.4675C2.42969 19.8908 2.7442 20.1449 3.05872 20.1449Z" fill="white"/>
<path d="M4.23828 16.25C4.39554 16.25 4.5528 16.1653 4.63143 16.0806L15.6395 4.22578C15.8754 3.97174 15.8754 3.63303 15.6395 3.379C15.4036 3.12497 15.0105 3.12497 14.7746 3.379L3.76651 15.2338C3.53062 15.4879 3.53062 15.9113 3.76651 16.1653C3.92376 16.25 4.08102 16.25 4.23828 16.25Z" fill="white"/>
<path d="M15.246 13.1169C15.5605 13.1169 15.875 12.8629 15.875 12.4395V3.80242C15.875 3.46371 15.6391 3.125 15.246 3.125H7.14718C6.83266 3.125 6.51814 3.37903 6.51814 3.80242C6.51814 4.22581 6.75403 4.47984 7.14718 4.47984H14.6169V12.5242C14.6169 12.8629 14.9315 13.1169 15.246 13.1169Z" fill="white"/>
</svg>
