<svg width="65" height="64" viewBox="0 0 65 64" fill="none" xmlns="http://www.w3.org/2000/svg">
<ellipse cx="32.5" cy="31.9538" rx="32.5" ry="31.9538" fill="#CC4900"/>
<path fill-rule="evenodd" clip-rule="evenodd" d="M28.2813 22.9273C29.9892 22.248 31.8406 21.9915 33.6729 22.1804C35.5053 22.3693 37.2624 22.9977 38.7899 24.0104C40.3174 25.0232 41.5685 26.3893 42.4334 27.9887C43.2983 29.5881 43.7504 31.3718 43.75 33.1832C43.75 33.5092 43.6183 33.8218 43.3839 34.0523C43.1495 34.2827 42.8315 34.4122 42.5 34.4122C42.1685 34.4122 41.8505 34.2827 41.6161 34.0523C41.3817 33.8218 41.25 33.5092 41.25 33.1832C41.2506 31.7742 40.8992 30.3866 40.2266 29.1424C39.5541 27.8982 38.581 26.8354 37.3929 26.0475C36.2048 25.2596 34.838 24.7707 33.4127 24.6237C31.9875 24.4768 30.5473 24.6762 29.2188 25.2046C29.0656 25.2711 28.9004 25.3067 28.733 25.3092C28.5656 25.3117 28.3993 25.2811 28.2442 25.2193C28.089 25.1574 27.9481 25.0655 27.8297 24.9491C27.7114 24.8327 27.618 24.694 27.5552 24.5414C27.4924 24.3888 27.4614 24.2254 27.464 24.0608C27.4667 23.8962 27.503 23.7338 27.5707 23.5832C27.6384 23.4327 27.7362 23.297 27.8583 23.1844C27.9803 23.0717 28.1242 22.9843 28.2813 22.9273ZM25.8275 25.7589C26.0759 25.9746 26.227 26.2784 26.2476 26.6036C26.2682 26.9287 26.1567 27.2487 25.9375 27.493C24.5248 29.0627 23.7466 31.0872 23.75 33.1832C23.75 33.5092 23.6183 33.8218 23.3839 34.0523C23.1495 34.2827 22.8315 34.4122 22.5 34.4122C22.1685 34.4122 21.8505 34.2827 21.6161 34.0523C21.3817 33.8218 21.25 33.5092 21.25 33.1832C21.2465 30.4885 22.247 27.8858 24.0625 25.867C24.1711 25.7459 24.303 25.6471 24.4505 25.5761C24.598 25.5051 24.7583 25.4634 24.9222 25.4534C25.0861 25.4433 25.2504 25.4651 25.4058 25.5176C25.5611 25.57 25.7044 25.652 25.8275 25.7589Z" fill="white"/>
<path fill-rule="evenodd" clip-rule="evenodd" d="M26.25 33.183C26.25 31.5533 26.9085 29.9903 28.0806 28.8379C29.2527 27.6855 30.8424 27.0381 32.5 27.0381C34.1576 27.0381 35.7473 27.6855 36.9194 28.8379C38.0915 29.9903 38.75 31.5533 38.75 33.183C38.75 33.509 38.6183 33.8216 38.3839 34.0521C38.1494 34.2826 37.8315 34.412 37.5 34.412C37.1685 34.412 36.8505 34.2826 36.6161 34.0521C36.3817 33.8216 36.25 33.509 36.25 33.183C36.25 32.2052 35.8549 31.2674 35.1516 30.576C34.4484 29.8845 33.4945 29.4961 32.5 29.4961C31.5054 29.4961 30.5516 29.8845 29.8483 30.576C29.1451 31.2674 28.75 32.2052 28.75 33.183C28.75 35.2441 28.3187 37.2092 27.54 38.9949C27.4092 39.2945 27.1627 39.5307 26.8548 39.6516C26.5469 39.7725 26.2028 39.7681 25.8981 39.6395C25.5934 39.511 25.3532 39.2686 25.2303 38.9659C25.1073 38.6632 25.1117 38.3248 25.2425 38.0253C25.9096 36.4953 26.2524 34.8477 26.25 33.183ZM37.4012 35.6558C37.5634 35.6811 37.719 35.7375 37.859 35.8219C37.999 35.9063 38.1207 36.0171 38.2172 36.1477C38.3137 36.2784 38.383 36.4265 38.4212 36.5836C38.4594 36.7406 38.4658 36.9035 38.44 37.063C38.277 38.074 38.0494 39.0739 37.7587 40.0568C37.716 40.2152 37.6415 40.3635 37.5397 40.4932C37.4378 40.6228 37.3106 40.7311 37.1655 40.8118C37.0204 40.8924 36.8604 40.9436 36.6949 40.9626C36.5294 40.9815 36.3617 40.9677 36.2016 40.922C36.0416 40.8762 35.8925 40.7995 35.7631 40.6963C35.6337 40.5931 35.5265 40.4655 35.448 40.321C35.3695 40.1765 35.3211 40.018 35.3058 39.8549C35.2905 39.6917 35.3085 39.5272 35.3587 39.371C35.6175 38.4947 35.8225 37.5951 35.9712 36.6771C36.0235 36.3554 36.2034 36.0674 36.4715 35.8761C36.7397 35.6848 37.074 35.606 37.4012 35.657V35.6558Z" fill="white"/>
<path fill-rule="evenodd" clip-rule="evenodd" d="M32.5001 31.9541C32.8317 31.9541 33.1496 32.0836 33.384 32.3141C33.6184 32.5445 33.7501 32.8571 33.7501 33.1831C33.7501 35.9311 33.1751 38.5513 32.1376 40.9307C32.0729 41.079 31.979 41.2133 31.8615 41.326C31.7439 41.4386 31.6049 41.5274 31.4525 41.5873C31.3 41.6471 31.1371 41.6769 30.9729 41.6748C30.8088 41.6728 30.6466 41.6389 30.4958 41.5753C30.3449 41.5116 30.2083 41.4193 30.0937 41.3037C29.9791 41.1882 29.8888 41.0515 29.8279 40.9016C29.767 40.7517 29.7368 40.5915 29.7389 40.4301C29.741 40.2687 29.7754 40.1093 29.8401 39.961C30.7736 37.8193 31.2534 35.5131 31.2501 33.1831C31.2501 32.8571 31.3818 32.5445 31.6163 32.3141C31.8507 32.0836 32.1686 31.9541 32.5001 31.9541Z" fill="white"/>
</svg>
