<svg width="61" height="61" viewBox="0 0 61 61" fill="none" xmlns="http://www.w3.org/2000/svg">
<ellipse cx="30.5" cy="30.9561" rx="30.5" ry="29.9874" fill="#CC4900"/>
<path fill-rule="evenodd" clip-rule="evenodd" d="M26.5412 22.4841C28.144 21.8466 29.8815 21.6059 31.6011 21.7831C33.3206 21.9604 34.9696 22.5501 36.4031 23.5005C37.8366 24.451 39.0108 25.733 39.8224 27.234C40.6341 28.7349 41.0584 30.4089 41.058 32.1089C41.058 32.4148 40.9344 32.7081 40.7144 32.9244C40.4944 33.1407 40.1961 33.2622 39.8849 33.2622C39.5738 33.2622 39.2754 33.1407 39.0554 32.9244C38.8355 32.7081 38.7119 32.4148 38.7119 32.1089C38.7124 30.7866 38.3826 29.4844 37.7514 28.3167C37.1203 27.1491 36.2071 26.1517 35.0921 25.4123C33.9771 24.6729 32.6945 24.2141 31.3569 24.0761C30.0193 23.9382 28.6678 24.1254 27.421 24.6212C27.2773 24.6836 27.1222 24.717 26.9651 24.7194C26.808 24.7217 26.652 24.693 26.5064 24.635C26.3608 24.5769 26.2285 24.4907 26.1174 24.3814C26.0064 24.2722 25.9187 24.1421 25.8598 23.9989C25.8008 23.8557 25.7718 23.7023 25.7743 23.5478C25.7768 23.3933 25.8108 23.2409 25.8743 23.0996C25.9379 22.9584 26.0297 22.8311 26.1442 22.7253C26.2588 22.6196 26.3938 22.5375 26.5412 22.4841V22.4841ZM24.2384 25.1414C24.4715 25.3438 24.6133 25.6289 24.6327 25.9341C24.6521 26.2393 24.5474 26.5395 24.3417 26.7688C23.0159 28.2419 22.2856 30.1419 22.2888 32.1089C22.2888 32.4148 22.1652 32.7081 21.9452 32.9244C21.7252 33.1407 21.4268 33.2622 21.1157 33.2622C20.8046 33.2622 20.5062 33.1407 20.2862 32.9244C20.0662 32.7081 19.9426 32.4148 19.9426 32.1089C19.9394 29.58 20.8783 27.1375 22.5821 25.2429C22.684 25.1293 22.8077 25.0365 22.9462 24.9699C23.0846 24.9033 23.235 24.8641 23.3889 24.8547C23.5427 24.8453 23.6969 24.8657 23.8427 24.9149C23.9884 24.9641 24.1229 25.0411 24.2384 25.1414V25.1414Z" fill="white"/>
<path fill-rule="evenodd" clip-rule="evenodd" d="M24.6349 32.1106C24.6349 30.5811 25.2528 29.1143 26.3528 28.0328C27.4528 26.9513 28.9447 26.3438 30.5003 26.3438C32.0558 26.3438 33.5477 26.9513 34.6477 28.0328C35.7477 29.1143 36.3656 30.5811 36.3656 32.1106C36.3656 32.4164 36.242 32.7098 36.022 32.9261C35.8021 33.1424 35.5037 33.2639 35.1926 33.2639C34.8814 33.2639 34.5831 33.1424 34.3631 32.9261C34.1431 32.7098 34.0195 32.4164 34.0195 32.1106C34.0195 31.1929 33.6487 30.3128 32.9887 29.6639C32.3287 29.015 31.4336 28.6505 30.5003 28.6505C29.5669 28.6505 28.6718 29.015 28.0118 29.6639C27.3518 30.3128 26.981 31.1929 26.981 32.1106C26.981 34.0447 26.5763 35.889 25.8455 37.5648C25.7227 37.8459 25.4915 38.0676 25.2025 38.181C24.9135 38.2945 24.5906 38.2904 24.3046 38.1697C24.0187 38.0491 23.7933 37.8217 23.6779 37.5376C23.5625 37.2534 23.5666 36.9359 23.6894 36.6548C24.3154 35.219 24.6371 33.6727 24.6349 32.1106V32.1106ZM35.0999 34.4311C35.2521 34.4548 35.3981 34.5078 35.5295 34.587C35.6609 34.6663 35.7751 34.7702 35.8656 34.8928C35.9562 35.0154 36.0212 35.1544 36.0571 35.3018C36.093 35.4492 36.099 35.6021 36.0747 35.7517C35.9217 36.7005 35.7082 37.6389 35.4354 38.5613C35.3953 38.7099 35.3254 38.8492 35.2298 38.9708C35.1342 39.0925 35.0148 39.1942 34.8786 39.2698C34.7425 39.3455 34.5923 39.3936 34.437 39.4113C34.2817 39.4291 34.1243 39.4161 33.9741 39.3732C33.8239 39.3303 33.684 39.2583 33.5626 39.1615C33.4411 39.0646 33.3406 38.9449 33.2669 38.8093C33.1932 38.6736 33.1478 38.5249 33.1334 38.3718C33.119 38.2187 33.1359 38.0643 33.1831 37.9177C33.4259 37.0954 33.6183 36.2511 33.7579 35.3896C33.8069 35.0877 33.9758 34.8174 34.2274 34.6379C34.479 34.4584 34.7928 34.3844 35.0999 34.4323V34.4311Z" fill="white"/>
<path fill-rule="evenodd" clip-rule="evenodd" d="M30.5004 30.9531C30.8115 30.9531 31.1099 31.0746 31.3299 31.2909C31.5499 31.5072 31.6735 31.8006 31.6735 32.1065C31.6735 34.6854 31.1338 37.1444 30.1602 39.3773C30.0994 39.5165 30.0113 39.6425 29.901 39.7483C29.7907 39.854 29.6603 39.9373 29.5172 39.9935C29.3741 40.0497 29.2212 40.0776 29.0671 40.0756C28.9131 40.0737 28.7609 40.042 28.6193 39.9822C28.4778 39.9225 28.3496 39.8359 28.242 39.7274C28.1345 39.6189 28.0497 39.4907 27.9926 39.35C27.9355 39.2094 27.9071 39.059 27.909 38.9075C27.911 38.7561 27.9433 38.6065 28.0041 38.4673C28.8801 36.4574 29.3304 34.2931 29.3273 32.1065C29.3273 31.8006 29.4509 31.5072 29.6709 31.2909C29.8909 31.0746 30.1893 30.9531 30.5004 30.9531V30.9531Z" fill="white"/>
</svg>
