<svg width="21" height="21" viewBox="0 0 21 21" fill="none" xmlns="http://www.w3.org/2000/svg">
<path opacity="0.4" d="M14.1663 1.75H6.84254C3.65754 1.75 1.75879 3.64875 1.75879 6.83375V14.1575C1.75879 17.3425 3.65754 19.2412 6.84254 19.2412H14.1663C17.3513 19.2412 19.25 17.3425 19.25 14.1575V6.83375C19.25 3.64875 17.3513 1.75 14.1663 1.75Z" fill="#242B3E"/>
<path d="M10.675 15.2072C10.0625 15.2072 9.44129 14.9709 8.97754 14.5072C8.52254 14.0522 8.26879 13.4485 8.26879 12.8097C8.26879 12.171 8.52254 11.5585 8.97754 11.1122L10.2113 9.87845C10.465 9.6247 10.885 9.6247 11.1388 9.87845C11.3925 10.1322 11.3925 10.5522 11.1388 10.8059L9.90504 12.0397C9.69504 12.2497 9.58129 12.521 9.58129 12.8097C9.58129 13.0985 9.69504 13.3784 9.90504 13.5797C10.3338 14.0084 11.0251 14.0084 11.4538 13.5797L13.3963 11.6372C14.5075 10.5259 14.5075 8.72345 13.3963 7.6122C12.285 6.50095 10.4826 6.50095 9.3713 7.6122L7.25376 9.72969C6.80751 10.1759 6.56253 10.7622 6.56253 11.3835C6.56253 12.0047 6.80751 12.5997 7.25376 13.0372C7.50751 13.2909 7.50751 13.7109 7.25376 13.9647C7.00001 14.2184 6.58001 14.2184 6.32626 13.9647C5.63501 13.2734 5.25879 12.3547 5.25879 11.3747C5.25879 10.3947 5.63501 9.47595 6.32626 8.7847L8.4438 6.66719C10.0626 5.04844 12.705 5.04844 14.3238 6.66719C15.9425 8.28594 15.9425 10.9284 14.3238 12.5472L12.3813 14.4897C11.9088 14.9709 11.2963 15.2072 10.675 15.2072Z" fill="#242B3E"/>
</svg>
