<svg width="29" height="34" viewBox="0 0 29 34" fill="none" xmlns="http://www.w3.org/2000/svg">
<path d="M25.375 21.604H3.625C3.12958 21.604 2.71875 21.1223 2.71875 20.5415C2.71875 19.9607 3.12958 19.479 3.625 19.479H25.375C25.8704 19.479 26.2812 19.9607 26.2812 20.5415C26.2812 21.1223 25.8704 21.604 25.375 21.604Z" fill="white" fill-opacity="0.2"/>
<path opacity="0.4" d="M25.3753 28.6875H13.9324C13.437 28.6875 13.0261 28.2058 13.0261 27.625C13.0261 27.0442 13.437 26.5625 13.9324 26.5625H25.3753C25.8707 26.5625 26.2815 27.0442 26.2815 27.625C26.2815 28.2058 25.8707 28.6875 25.3753 28.6875Z" fill="white" fill-opacity="0.2"/>
<path opacity="0.4" d="M14.5 14.521H3.625C3.12958 14.521 2.71875 14.0393 2.71875 13.4585C2.71875 12.8777 3.12958 12.396 3.625 12.396H14.5C14.9954 12.396 15.4062 12.8777 15.4062 13.4585C15.4062 14.0393 14.9954 14.521 14.5 14.521Z" fill="white" fill-opacity="0.2"/>
<path d="M25.375 21.604H3.625C3.12958 21.604 2.71875 21.1223 2.71875 20.5415C2.71875 19.9607 3.12958 19.479 3.625 19.479H25.375C25.8704 19.479 26.2812 19.9607 26.2812 20.5415C26.2812 21.1223 25.8704 21.604 25.375 21.604Z" fill="white" fill-opacity="0.2"/>
</svg>
