<svg width="24" height="24" viewBox="0 0 24 24" fill="none" xmlns="http://www.w3.org/2000/svg">
<path opacity="0.4" d="M16.19 2H7.81C4.17 2 2 4.17 2 7.81V16.18C2 19.83 4.17 22 7.81 22H16.18C19.82 22 21.99 19.83 21.99 16.19V7.81C22 4.17 19.83 2 16.19 2Z" fill="#B6B6B6"/>
<path d="M16.8304 9.40656C16.7604 9.23656 16.6204 9.09656 16.4504 9.02656C16.3704 8.99656 16.2804 8.97656 16.1904 8.97656H14.3304C13.9404 8.97656 13.6304 9.28656 13.6304 9.67656C13.6304 10.0666 13.9404 10.3766 14.3304 10.3766H14.5104L12.4004 12.4866L11.3804 10.9666C11.2604 10.7966 11.0804 10.6766 10.8704 10.6566C10.6504 10.6366 10.4604 10.7066 10.3104 10.8566L7.33043 13.8366C7.06043 14.1066 7.06043 14.5466 7.33043 14.8266C7.47043 14.9666 7.64043 15.0266 7.82043 15.0266C8.00043 15.0266 8.18043 14.9566 8.31043 14.8266L10.6904 12.4466L11.7104 13.9666C11.8304 14.1366 12.0104 14.2566 12.2204 14.2766C12.4404 14.2966 12.6304 14.2266 12.7804 14.0766L15.5004 11.3566V11.5366C15.5004 11.9266 15.8104 12.2366 16.2004 12.2366C16.5904 12.2366 16.9004 11.9266 16.9004 11.5366V9.66656C16.8804 9.57656 16.8704 9.48656 16.8304 9.40656Z" fill="#B6B6B6"/>
</svg>
