<svg width="78" height="129" viewBox="0 0 78 129" fill="none" xmlns="http://www.w3.org/2000/svg">
<path d="M2.9766e-05 29.9648V67.2588C-0.00479218 69.222 0.576337 71.1419 1.66903 72.7728L11.169 84.8168C12.0119 86.0633 13.1465 87.085 14.4742 87.7931C15.8018 88.5011 17.2824 88.8742 18.787 88.8798H32.578C34.0833 88.875 35.5646 88.5024 36.893 87.7944C38.2214 87.0865 39.3566 86.0646 40.2 84.8178L49.7 72.7738C50.7927 71.1429 51.3739 69.223 51.369 67.2598V29.9648H2.9766e-05Z" fill="#CC4900"/>
<path d="M45.7834 0H5.73242V29.966H45.7834V0Z" fill="#EFDED5"/>
<path d="M17.1918 22.7102C16.6353 22.7087 16.1021 22.4869 15.7086 22.0934C15.3151 21.6999 15.0934 21.1667 15.0918 20.6102V10.0103C15.0918 9.45223 15.3135 8.91707 15.708 8.5225C16.1026 8.12792 16.6378 7.90625 17.1958 7.90625C17.7538 7.90625 18.289 8.12792 18.6835 8.5225C19.0781 8.91707 19.2998 9.45223 19.2998 10.0103V20.6102C19.2982 21.1681 19.0754 21.7025 18.6801 22.0962C18.2849 22.49 17.7497 22.7108 17.1918 22.7102Z" fill="white"/>
<path d="M33.9516 22.7102C33.3951 22.7087 32.8619 22.4869 32.4684 22.0934C32.0749 21.6999 31.8531 21.1667 31.8516 20.6102V10.0103C31.8516 9.45223 32.0732 8.91707 32.4678 8.5225C32.8624 8.12792 33.3975 7.90625 33.9556 7.90625C34.5136 7.90625 35.0487 8.12792 35.4433 8.5225C35.8379 8.91707 36.0596 9.45223 36.0596 10.0103V20.6102C36.058 21.1681 35.8351 21.7025 35.4399 22.0962C35.0447 22.49 34.5094 22.7108 33.9516 22.7102Z" fill="white"/>
<path d="M50.2808 128.57C43.1033 128.57 36.2199 125.718 31.1446 120.643C26.0694 115.568 23.218 108.684 23.2178 101.507V97.952C23.2178 97.2208 23.5082 96.5196 24.0253 96.0025C24.5423 95.4855 25.2436 95.195 25.9748 95.195C26.706 95.195 27.4072 95.4855 27.9243 96.0025C28.4413 96.5196 28.7318 97.2208 28.7318 97.952V101.507C28.7705 107.178 31.0502 112.603 35.0736 116.599C39.0971 120.595 44.5376 122.837 50.2083 122.837C55.8789 122.837 61.3195 120.595 65.3429 116.599C69.3663 112.603 71.6461 107.178 71.6848 101.507V72.339C71.6848 71.6078 71.9752 70.9066 72.4923 70.3895C73.0093 69.8725 73.7106 69.582 74.4418 69.582C75.173 69.582 75.8742 69.8725 76.3913 70.3895C76.9083 70.9066 77.1988 71.6078 77.1988 72.339V101.507C77.215 105.053 76.5308 108.568 75.1856 111.849C73.8404 115.131 71.8605 118.114 69.3596 120.628C66.8587 123.143 63.886 125.138 60.612 126.501C57.338 127.864 53.8271 128.567 50.2808 128.57Z" fill="#EFDED5"/>
<path d="M29.2401 97.9528H22.5631C21.7948 97.9499 21.0589 97.6434 20.5157 97.1002C19.9724 96.557 19.666 95.821 19.6631 95.0528V88.8828H32.0701V95.0498C32.0841 95.4286 32.021 95.8063 31.8846 96.16C31.7483 96.5138 31.5415 96.8361 31.2769 97.1075C31.0123 97.379 30.6954 97.5938 30.3452 97.7391C29.9951 97.8844 29.6191 97.9571 29.2401 97.9528Z" fill="#51230A"/>
<path d="M25.7523 75.7476C25.1959 75.746 24.6627 75.5243 24.2692 75.1308C23.8757 74.7373 23.6539 74.2041 23.6523 73.6476V41.7876C23.6523 41.2296 23.874 40.6944 24.2686 40.2998C24.6632 39.9053 25.1983 39.6836 25.7563 39.6836C26.3144 39.6836 26.8495 39.9053 27.2441 40.2998C27.6387 40.6944 27.8603 41.2296 27.8603 41.7876V73.6436C27.8609 73.9204 27.8067 74.1945 27.7009 74.4503C27.5951 74.7061 27.4398 74.9384 27.2439 75.1339C27.048 75.3295 26.8153 75.4844 26.5594 75.5897C26.3034 75.695 26.0291 75.7486 25.7523 75.7476Z" fill="white"/>
<path d="M25.7536 66.1711C25.2709 66.1766 24.8048 65.9945 24.4536 65.6631L16.1796 58.7711C15.9424 58.5793 15.7532 58.3348 15.6272 58.057C15.5012 57.7793 15.4417 57.4759 15.4536 57.1711V50.3501C15.4536 49.7921 15.6753 49.2569 16.0699 48.8623C16.4645 48.4678 16.9996 48.2461 17.5576 48.2461C18.1157 48.2461 18.6508 48.4678 19.0454 48.8623C19.44 49.2569 19.6616 49.7921 19.6616 50.3501V56.2271L27.1346 62.4671C27.5592 62.8287 27.8267 63.341 27.8808 63.896C27.9349 64.451 27.7714 65.0053 27.4246 65.4421C27.2099 65.6703 26.9511 65.8525 26.6639 65.9778C26.3766 66.1032 26.067 66.1689 25.7536 66.1711Z" fill="white"/>
<path d="M25.7564 60.1487C25.4527 60.1533 25.1517 60.0906 24.8751 59.9651C24.5984 59.8396 24.353 59.6543 24.1564 59.4227C23.8023 58.9944 23.6273 58.4458 23.6679 57.8915C23.7085 57.3371 23.9616 56.8199 24.3744 56.4478L32.0654 49.9177V45.1977C32.0654 44.6397 32.2871 44.1046 32.6817 43.71C33.0762 43.3154 33.6114 43.0938 34.1694 43.0938C34.7274 43.0938 35.2626 43.3154 35.6572 43.71C36.0518 44.1046 36.2734 44.6397 36.2734 45.1977V50.8568C36.2495 51.4644 35.9889 52.0386 35.5474 52.4567L27.1304 59.6397C26.7453 59.9637 26.2596 60.1436 25.7564 60.1487Z" fill="white"/>
</svg>
