<svg width="21" height="21" viewBox="0 0 21 21" fill="none" xmlns="http://www.w3.org/2000/svg">
<path opacity="0.4" d="M19.25 10.5V14.875C19.25 17.5 17.5 19.25 14.875 19.25H6.125C3.5 19.25 1.75 17.5 1.75 14.875V10.5C1.75 8.12 3.185 6.4575 5.41625 6.1775C5.64375 6.1425 5.88 6.125 6.125 6.125H14.875C15.1025 6.125 15.3213 6.13374 15.5312 6.16874C17.7887 6.43124 19.25 8.1025 19.25 10.5Z" fill="#242B3E"/>
<path d="M15.532 6.16875C15.322 6.13375 15.1032 6.12501 14.8757 6.12501H6.12574C5.88074 6.12501 5.64449 6.14251 5.41699 6.17751C5.53949 5.93251 5.71449 5.70501 5.92449 5.49501L8.76824 2.6425C9.96699 1.4525 11.9095 1.4525 13.1082 2.6425L14.6395 4.19127C15.1995 4.74252 15.497 5.4425 15.532 6.16875Z" fill="#242B3E"/>
<path d="M19.25 10.9375H16.625C15.6625 10.9375 14.875 11.725 14.875 12.6875C14.875 13.65 15.6625 14.4375 16.625 14.4375H19.25" fill="#242B3E"/>
</svg>
